<?xml version="1.0" encoding="UTF-8" standalone="no"?>
<!DOCTYPE svg PUBLIC "-//W3C//DTD SVG 1.1//EN" "http://www.w3.org/Graphics/SVG/1.1/DTD/svg11.dtd">
<!-- Microsoft Visio, SVG Export에서 생성되었습니다. 3로-1로.svg 페이지-1 -->
<svg xmlns="http://www.w3.org/2000/svg" xmlns:xlink="http://www.w3.org/1999/xlink" xmlns:ev="http://www.w3.org/2001/xml-events"
		xmlns:v="http://schemas.microsoft.com/visio/2003/SVGExtensions/" width="5.63232in" height="1.58041in"
		viewBox="0 0 405.527 113.789" xml:space="preserve" color-interpolation-filters="sRGB" class="st9">
	<v:documentProperties v:langID="1042" v:metric="true" v:viewMarkup="false"/>

	<style type="text/css">
	<![CDATA[
		.st1 {fill:#000000}
		.st2 {stroke:#000000;stroke-linecap:butt;stroke-width:1.47402}
		.st3 {fill:#000000;font-family:맑은 고딕;font-size:0.833336em}
		.st4 {stroke:#000000;stroke-linecap:butt;stroke-width:0.75}
		.st5 {stroke:#000000;stroke-linecap:butt;stroke-width:0.850394}
		.st6 {stroke:#ff0000;stroke-linecap:butt;stroke-width:0.75}
		.st7 {fill:none;stroke:#000000;stroke-linecap:butt;stroke-width:1.5}
		.st8 {stroke:#000000;stroke-linecap:butt;stroke-width:2.21102}
		.st9 {fill:none;fill-rule:evenodd;font-size:12px;overflow:visible;stroke-linecap:square;stroke-miterlimit:3}
	]]>
	</style>

	<g v:mID="0" v:index="1" v:groupContext="foregroundPage">
		<v:userDefs>
			<v:ud v:nameU="LampCount" v:prompt="" v:val="VT0(2):26"/>
			<v:ud v:nameU="SPSTCount" v:prompt="" v:val="VT0(3):26"/>
		</v:userDefs>
		<title>페이지-1</title>
		<v:pageProperties v:drawingScale="0.0393701" v:pageScale="0.0393701" v:drawingUnits="24" v:shadowOffsetX="8.50394"
				v:shadowOffsetY="-8.50394"/>
		<v:layer v:name="전기" v:index="0"/>
		<v:layer v:name="연결선" v:index="1"/>
		<g id="shape51-1" v:mID="51" v:groupContext="shape" v:layerMember="0" transform="translate(12.9215,-50.1831)">
			<title>AC 전원.51</title>
			<v:custProps>
				<v:cp v:nameU="Label" v:lbl="Label" v:prompt="" v:type="0" v:format="@" v:sortKey="" v:invis="false" v:ask="false"
						v:langID="1042" v:cal="0" v:val="VT4()"/>
				<v:cp v:nameU="Label" v:lbl="" v:prompt="" v:type="0" v:format="" v:sortKey="" v:invis="false" v:ask="false"
						v:langID="0" v:cal="0" v:val="VT4(AC)"/>
			</v:custProps>
			<v:userDefs>
				<v:ud v:nameU="AT" v:prompt="Action toggle" v:val="VT0(0):26"/>
				<v:ud v:nameU="LimitHgt" v:val="VT0(0):26"/>
				<v:ud v:nameU="visDescription" v:val="VT4(AC current or voltage source.)"/>
				<v:ud v:nameU="visVersion" v:val="VT0(15):26"/>
				<v:ud v:nameU="Label" v:prompt="" v:val="VT4()"/>
				<v:ud v:nameU="SolSH" v:prompt="" v:val="VT4({2EE3C7D2-E26E-4B72-9E9C-5170DDBF261A})"/>
				<v:ud v:nameU="Label" v:prompt="" v:val="VT4(AC)"/>
			</v:userDefs>
			<v:textBlock v:margins="rect(1,1,1,1)" v:tabSpace="34.0157"/>
			<v:textRect cx="-3.69696" cy="95.3641" width="18.45" height="14.0036"/>
			<path d="M25.12 94.6 L28.07 94.6 C28.07 98.27 25.73 100.92 22.51 100.92 C19.44 100.92 16.95 98.43 16.95 95.36 C16.95
						 93.92 15.78 92.75 14.34 92.75 C12.66 92.75 11.73 93.94 11.73 96.1 L8.78 96.1 C8.78 91.45 11.78 89.81 14.34
						 89.81 C17.41 89.81 19.9 92.3 19.9 95.36 C19.9 96.8 21.07 97.97 22.51 97.97 C24.07 97.97 25.12 96.62 25.12
						 94.6 Z" class="st1"/>
			<path d="M18.43 83.57 L18.43 76.94" class="st2"/>
			<path d="M18.43 113.79 L18.43 107.16" class="st2"/>
			<path d="M30.22 95.36 A11.7921 11.7921 -180 1 0 6.63 95.36 A11.7921 11.7921 -180 1 0 30.22 95.36" class="st2"/>
			<text x="-10.16" y="98.36" class="st3" v:langID="1042"><v:paragraph v:horizAlign="1"/><v:tabList/>AC</text>		</g>
		<g id="shape52-7" v:mID="52" v:groupContext="shape" v:layerMember="0" transform="translate(456.947,26.7559) rotate(90)">
			<title>램프.52</title>
			<desc>조명</desc>
			<v:custProps>
				<v:cp v:nameU="Label" v:lbl="Label" v:prompt="" v:type="0" v:format="@" v:sortKey="" v:invis="false" v:ask="false"
						v:langID="1042" v:cal="0" v:val="VT4()"/>
				<v:cp v:nameU="Label" v:lbl="" v:prompt="" v:type="0" v:format="" v:sortKey="" v:invis="false" v:ask="false"
						v:langID="0" v:cal="0" v:val="VT4(조명)"/>
			</v:custProps>
			<v:userDefs>
				<v:ud v:nameU="SubType" v:val="VT0(1):5"/>
				<v:ud v:nameU="Line" v:val="VT0(1):5"/>
				<v:ud v:nameU="visDescription" v:val="VT4(Represents a lamp.)"/>
				<v:ud v:nameU="visVersion" v:val="VT0(15):26"/>
				<v:ud v:nameU="Label" v:prompt="" v:val="VT4()"/>
				<v:ud v:nameU="SolSH" v:prompt="" v:val="VT4({2EE3C7D2-E26E-4B72-9E9C-5170DDBF261A})"/>
				<v:ud v:nameU="Label" v:prompt="" v:val="VT4(Lamp1)"/>
			</v:userDefs>
			<v:textBlock v:margins="rect(1,1,1,1)" v:tabSpace="34.0157" v:verticalAlign="0"/>
			<v:textRect cx="18.4252" cy="64.1793" width="25.52" height="14.0036" transform="rotate(-90)"/>
			<path d="M8.7 103.53 L8.7 89.12 C8.7 83.53 12.89 79.15 18.24 79.15 C23.64 79.15 27.71 83.44 27.71 89.12 L27.71 103.53
						 L8.7 103.53 ZM29.93 105.73 L29.92 105.73 L29.92 89.12 C29.92 82.29 24.79 76.94 18.24 76.94 C11.65 76.94
						 6.49 82.29 6.49 89.12 L6.49 105.73 L29.93 105.73 Z" class="st1"/>
			<path d="M13 104.36 L13 113.79" class="st2"/>
			<path d="" class="st2"/>
			<path d="M23.85 104.36 L23.85 91.62 C23.85 88.5 21.57 85.96 18.44 85.96 C15.31 85.96 13 88.5 13 91.62 L13 104.36"
					class="st2"/>
			<path d="M23.85 104.36 L23.85 113.79" class="st2"/>
			<text x="-74.18" y="21.42" transform="rotate(-90)" class="st3" v:langID="1042"><v:paragraph v:horizAlign="1"/><v:tabList/>조명</text>		</g>
		<g id="shape54-14" v:mID="54" v:groupContext="shape" v:layerMember="1" transform="translate(31.3467,-87.6178)">
			<title>동적 연결선.54</title>
			<path d="M0 114.37 L0 99.61 L311.81 99.61 L311.81 127.38" class="st4"/>
		</g>
		<g id="shape55-17" v:mID="55" v:groupContext="shape" v:layerMember="0" transform="translate(20.0081,-91.2854)">
			<title>중성 기호.55</title>
			<v:userDefs>
				<v:ud v:nameU="Flip1" v:val="VT0(0):26"/>
				<v:ud v:nameU="Flip2" v:val="VT0(0):26"/>
				<v:ud v:nameU="visVersion" v:val="VT0(15):26"/>
				<v:ud v:nameU="visDescription" v:val="VT4(중성(도체)을 나타내는 보조 기호입니다.)"/>
				<v:ud v:nameU="SolSH" v:prompt="" v:val="VT4({2EE3C7D2-E26E-4B72-9E9C-5170DDBF261A})"/>
			</v:userDefs>
			<path d="M6.38 105.29 L6.38 110.81 L2.13 105.29 L0 105.29 L0 113.79 L2.13 113.79 L2.13 108.26 L6.38 113.79 L8.5 113.79
						 L8.5 105.29 L6.38 105.29 Z" class="st1"/>
		</g>
		<g id="shape56-20" v:mID="56" v:groupContext="shape" v:layerMember="0" transform="translate(20.0081,-37.4272)">
			<title>양극.56</title>
			<v:userDefs>
				<v:ud v:nameU="visVersion" v:val="VT0(15):26"/>
				<v:ud v:nameU="visDescription" v:val="VT4(양극 표시입니다.)"/>
				<v:ud v:nameU="SolSH" v:prompt="" v:val="VT4({2EE3C7D2-E26E-4B72-9E9C-5170DDBF261A})"/>
			</v:userDefs>
			<path d="M0 109.54 L8.5 109.54" class="st5"/>
			<path d="M4.25 105.29 L4.25 113.79" class="st5"/>
		</g>
		<g id="shape65-24" v:mID="65" v:groupContext="shape" v:layerMember="1" transform="translate(125.182,-4.26326E-14)">
			<title>동적 연결선.65</title>
			<path d="M0 106.7 L124.14 106.7" class="st6"/>
		</g>
		<g id="shape67-27" v:mID="67" v:groupContext="shape" v:layerMember="0" transform="translate(235.441,-16.7441)">
			<title>단자</title>
			<v:custProps>
				<v:cp v:nameU="Label" v:lbl="레이블" v:type="0" v:format="@" v:sortKey="" v:invis="false" v:ask="false"
						v:langID="1042" v:val="VT4()"/>
			</v:custProps>
			<v:userDefs>
				<v:ud v:nameU="CH" v:val="VT0(5):26"/>
				<v:ud v:nameU="visDescription" v:val="VT4(단자입니다. 텍스트를 이동하려면 컨트롤 핸들을 사용하십시오.)"/>
				<v:ud v:nameU="visVersion" v:val="VT0(15):26"/>
				<v:ud v:nameU="SolSH" v:prompt="" v:val="VT4({2EE3C7D2-E26E-4B72-9E9C-5170DDBF261A})"/>
			</v:userDefs>
			<ellipse cx="18.5173" cy="95.3641" rx="4.45153" ry="4.45521" class="st7"/>
		</g>
		<g id="shape69-29" v:mID="69" v:groupContext="shape" v:layerMember="0" transform="translate(263.788,-16.1673)">
			<title>단자.69</title>
			<v:custProps>
				<v:cp v:nameU="Label" v:lbl="레이블" v:type="0" v:format="@" v:sortKey="" v:invis="false" v:ask="false"
						v:langID="1042" v:val="VT4()"/>
			</v:custProps>
			<v:userDefs>
				<v:ud v:nameU="CH" v:val="VT0(5):26"/>
				<v:ud v:nameU="visDescription" v:val="VT4(단자입니다. 텍스트를 이동하려면 컨트롤 핸들을 사용하십시오.)"/>
				<v:ud v:nameU="visVersion" v:val="VT0(15):26"/>
				<v:ud v:nameU="SolSH" v:prompt="" v:val="VT4({2EE3C7D2-E26E-4B72-9E9C-5170DDBF261A})"/>
			</v:userDefs>
			<ellipse cx="18.5173" cy="95.3641" rx="4.45153" ry="4.45521" class="st7"/>
		</g>
		<g id="shape74-31" v:mID="74" v:groupContext="shape" v:layerMember="1" transform="translate(286.756,-34.5925)">
			<title>동적 연결선.74</title>
			<path d="M0 113.79 L56.4 113.79 L56.4 85.19" class="st6"/>
		</g>
		<g id="shape75-34" v:mID="75" v:groupContext="shape" v:layerMember="1" transform="translate(258.41,-41.9675)">
			<title>동적 연결선.75</title>
			<path d="M0 120.59 L19.26 121.16" class="st6"/>
		</g>
		<g id="group80-37" transform="translate(88.0396,-16.876)" v:mID="80" v:groupContext="group" v:layerMember="0">
			<v:custProps>
				<v:cp v:nameU="Label" v:lbl="Label" v:prompt="" v:type="0" v:format="@" v:sortKey="" v:invis="false" v:ask="false"
						v:langID="1042" v:cal="0" v:val="VT4()"/>
				<v:cp v:nameU="Label" v:lbl="" v:prompt="" v:type="0" v:format="" v:sortKey="" v:invis="false" v:ask="false"
						v:langID="0" v:cal="0" v:val="VT4(스위치)"/>
			</v:custProps>
			<v:userDefs>
				<v:ud v:nameU="visDescription" v:val="VT4(1극 1단자 스위치를 나타냅니다. 마우스 오른쪽 단추를 클릭하여 스위치를 개방하거나 폐쇄할 수 있습니다.)"/>
				<v:ud v:nameU="visVersion" v:val="VT0(15):26"/>
				<v:ud v:nameU="Label" v:prompt="" v:val="VT4()"/>
				<v:ud v:nameU="SolSH" v:prompt="" v:val="VT4({2EE3C7D2-E26E-4B72-9E9C-5170DDBF261A})"/>
				<v:ud v:nameU="Label" v:prompt="" v:val="VT4(SPST2)"/>
			</v:userDefs>
			<title>SPST.80</title>
			<desc>스위치</desc>
			<g id="shape81-38" v:mID="81" v:groupContext="shape" v:layerMember="0" transform="translate(8.84409,-18.4694)">
				<title>시트.81</title>
				<path d="M19.16 101.04 L0 113.79" class="st2"/>
			</g>
			<g id="shape82-41" v:mID="82" v:groupContext="shape" v:layerMember="0" transform="translate(1.12458E-05,-14.0488)">
				<title>시트.82</title>
				<path d="M36.85 109.37 A4.42205 4.42205 0 1 1 28.01 109.37 A4.42205 4.42205 0 1 1 36.85 109.37" class="st8"/>
				<path d="M8.84 109.37 A4.42205 4.42205 0 1 1 -0 109.37 A4.42205 4.42205 0 1 1 8.84 109.37" class="st8"/>
			</g>
			<g id="shape80-45" v:mID="80" v:groupContext="groupContent" v:layerMember="0">
				<v:textBlock v:margins="rect(1,1,1,1)" v:tabSpace="34.0157"/>
				<v:textRect cx="18.4252" cy="107.894" width="35.52" height="14.0036"/>
				<text x="3.43" y="110.89" class="st3" v:langID="1042"><v:paragraph v:horizAlign="1"/><v:tabList/>스위치</text>			</g>
		</g>
		<g id="shape88-47" v:mID="88" v:groupContext="shape" v:layerMember="1" transform="translate(120.468,-42.3218)">
			<title>동적 연결선.88</title>
			<path d="M0 120.81 L128.85 120.94" class="st6"/>
		</g>
		<g id="shape89-50" v:mID="89" v:groupContext="shape" v:layerMember="1" transform="translate(31.3467,-50.1831)">
			<title>동적 연결선.89</title>
			<path d="M0 113.79 L0 128.67 L61.11 128.67" class="st6"/>
		</g>
	</g>
</svg>
