<?xml version="1.0" encoding="UTF-8" standalone="no"?>
<!DOCTYPE svg PUBLIC "-//W3C//DTD SVG 1.1//EN" "http://www.w3.org/Graphics/SVG/1.1/DTD/svg11.dtd">
<!-- Microsoft Visio, SVG Export에서 생성되었습니다. 3로스위치.svg 페이지-1 -->
<svg xmlns="http://www.w3.org/2000/svg" xmlns:xlink="http://www.w3.org/1999/xlink" xmlns:ev="http://www.w3.org/2001/xml-events"
		xmlns:v="http://schemas.microsoft.com/visio/2003/SVGExtensions/" width="5.63232in" height="1.57595in"
		viewBox="0 0 405.527 113.468" xml:space="preserve" color-interpolation-filters="sRGB" class="st8">
	<v:documentProperties v:langID="1042" v:metric="true" v:viewMarkup="false"/>

	<style type="text/css">
	<![CDATA[
		.st1 {fill:#000000}
		.st2 {stroke:#000000;stroke-linecap:butt;stroke-width:1.47402}
		.st3 {fill:#000000;font-family:맑은 고딕;font-size:0.833336em}
		.st4 {stroke:#ff0000;stroke-linecap:butt;stroke-width:0.75}
		.st5 {stroke:#000000;stroke-linecap:butt;stroke-width:0.75}
		.st6 {stroke:#000000;stroke-linecap:butt;stroke-width:0.850394}
		.st7 {stroke:#000000;stroke-linecap:butt;stroke-width:2.21102}
		.st8 {fill:none;fill-rule:evenodd;font-size:12px;overflow:visible;stroke-linecap:square;stroke-miterlimit:3}
	]]>
	</style>

	<g v:mID="0" v:index="1" v:groupContext="foregroundPage">
		<v:userDefs>
			<v:ud v:nameU="LampCount" v:prompt="" v:val="VT0(2):26"/>
			<v:ud v:nameU="SPDTCount" v:prompt="" v:val="VT0(3):26"/>
		</v:userDefs>
		<title>페이지-1</title>
		<v:pageProperties v:drawingScale="0.0393701" v:pageScale="0.0393701" v:drawingUnits="24" v:shadowOffsetX="8.50394"
				v:shadowOffsetY="-8.50394"/>
		<v:layer v:name="전기" v:index="0"/>
		<v:layer v:name="연결선" v:index="1"/>
		<g id="shape33-1" v:mID="33" v:groupContext="shape" v:layerMember="0" transform="translate(12.9215,-49.8619)">
			<title>AC 전원.33</title>
			<v:custProps>
				<v:cp v:nameU="Label" v:lbl="Label" v:prompt="" v:type="0" v:format="@" v:sortKey="" v:invis="false" v:ask="false"
						v:langID="1042" v:cal="0" v:val="VT4()"/>
				<v:cp v:nameU="Label" v:lbl="" v:prompt="" v:type="0" v:format="" v:sortKey="" v:invis="false" v:ask="false"
						v:langID="0" v:cal="0" v:val="VT4(AC)"/>
			</v:custProps>
			<v:userDefs>
				<v:ud v:nameU="AT" v:prompt="Action toggle" v:val="VT0(0):26"/>
				<v:ud v:nameU="LimitHgt" v:val="VT0(0):26"/>
				<v:ud v:nameU="visDescription" v:val="VT4(AC current or voltage source.)"/>
				<v:ud v:nameU="visVersion" v:val="VT0(15):26"/>
				<v:ud v:nameU="Label" v:prompt="" v:val="VT4()"/>
				<v:ud v:nameU="SolSH" v:prompt="" v:val="VT4({2EE3C7D2-E26E-4B72-9E9C-5170DDBF261A})"/>
				<v:ud v:nameU="Label" v:prompt="" v:val="VT4(AC)"/>
			</v:userDefs>
			<v:textBlock v:margins="rect(1,1,1,1)" v:tabSpace="34.0157"/>
			<v:textRect cx="-3.69696" cy="95.043" width="18.45" height="14.0036"/>
			<path d="M25.12 94.28 L28.07 94.28 C28.07 97.94 25.73 100.6 22.51 100.6 C19.44 100.6 16.95 98.11 16.95 95.04 C16.95 93.6
						 15.78 92.43 14.34 92.43 C12.66 92.43 11.73 93.62 11.73 95.78 L8.78 95.78 C8.78 91.13 11.78 89.48 14.34 89.48
						 C17.41 89.48 19.9 91.98 19.9 95.04 C19.9 96.48 21.07 97.65 22.51 97.65 C24.07 97.65 25.12 96.3 25.12 94.28
						 Z" class="st1"/>
			<path d="M18.43 83.25 L18.43 76.62" class="st2"/>
			<path d="M18.43 113.47 L18.43 106.84" class="st2"/>
			<path d="M30.22 95.04 A11.7921 11.7921 -180 1 0 6.63 95.04 A11.7921 11.7921 -180 1 0 30.22 95.04" class="st2"/>
			<text x="-10.16" y="98.04" class="st3" v:langID="1042"><v:paragraph v:horizAlign="1"/><v:tabList/>AC</text>		</g>
		<g id="shape34-7" v:mID="34" v:groupContext="shape" v:layerMember="0" transform="translate(456.626,26.7559) rotate(90)">
			<title>램프.34</title>
			<desc>조명</desc>
			<v:custProps>
				<v:cp v:nameU="Label" v:lbl="Label" v:prompt="" v:type="0" v:format="@" v:sortKey="" v:invis="false" v:ask="false"
						v:langID="1042" v:cal="0" v:val="VT4()"/>
				<v:cp v:nameU="Label" v:lbl="" v:prompt="" v:type="0" v:format="" v:sortKey="" v:invis="false" v:ask="false"
						v:langID="0" v:cal="0" v:val="VT4(조명)"/>
			</v:custProps>
			<v:userDefs>
				<v:ud v:nameU="SubType" v:val="VT0(1):5"/>
				<v:ud v:nameU="Line" v:val="VT0(1):5"/>
				<v:ud v:nameU="visDescription" v:val="VT4(Represents a lamp.)"/>
				<v:ud v:nameU="visVersion" v:val="VT0(15):26"/>
				<v:ud v:nameU="Label" v:prompt="" v:val="VT4()"/>
				<v:ud v:nameU="SolSH" v:prompt="" v:val="VT4({2EE3C7D2-E26E-4B72-9E9C-5170DDBF261A})"/>
				<v:ud v:nameU="Label" v:prompt="" v:val="VT4(Lamp1)"/>
			</v:userDefs>
			<v:textBlock v:margins="rect(1,1,1,1)" v:tabSpace="34.0157" v:verticalAlign="0"/>
			<v:textRect cx="18.4252" cy="63.8581" width="25.52" height="14.0036" transform="rotate(-90)"/>
			<path d="M8.7 103.2 L8.7 88.8 C8.7 83.21 12.89 78.83 18.24 78.83 C23.64 78.83 27.71 83.12 27.71 88.8 L27.71 103.2 L8.7
						 103.2 ZM29.93 105.41 L29.92 105.41 L29.92 88.8 C29.92 81.97 24.79 76.62 18.24 76.62 C11.65 76.62 6.49 81.97
						 6.49 88.8 L6.49 105.41 L29.93 105.41 Z" class="st1"/>
			<path d="M13 104.04 L13 113.47" class="st2"/>
			<path d="" class="st2"/>
			<path d="M23.85 104.04 L23.85 91.3 C23.85 88.18 21.57 85.64 18.44 85.64 C15.31 85.64 13 88.18 13 91.3 L13 104.04"
					class="st2"/>
			<path d="M23.85 104.04 L23.85 113.47" class="st2"/>
			<text x="-73.86" y="21.42" transform="rotate(-90)" class="st3" v:langID="1042"><v:paragraph v:horizAlign="1"/><v:tabList/>조명</text>		</g>
		<g id="shape35-14" v:mID="35" v:groupContext="shape" v:layerMember="1" transform="translate(31.3467,-49.8619)">
			<title>동적 연결선.35</title>
			<path d="M0 113.47 L0 129.01 L61.11 129.01" class="st4"/>
		</g>
		<g id="shape36-17" v:mID="36" v:groupContext="shape" v:layerMember="1" transform="translate(31.3467,-87.2967)">
			<title>동적 연결선.36</title>
			<path d="M0 114.05 L0 99.29 L311.81 99.29 L311.81 127.06" class="st5"/>
		</g>
		<g id="shape37-20" v:mID="37" v:groupContext="shape" v:layerMember="0" transform="translate(20.0081,-90.9642)">
			<title>중성 기호.37</title>
			<v:userDefs>
				<v:ud v:nameU="Flip1" v:val="VT0(0):26"/>
				<v:ud v:nameU="Flip2" v:val="VT0(0):26"/>
				<v:ud v:nameU="visVersion" v:val="VT0(15):26"/>
				<v:ud v:nameU="visDescription" v:val="VT4(중성(도체)을 나타내는 보조 기호입니다.)"/>
				<v:ud v:nameU="SolSH" v:prompt="" v:val="VT4({2EE3C7D2-E26E-4B72-9E9C-5170DDBF261A})"/>
			</v:userDefs>
			<path d="M6.38 104.96 L6.38 110.49 L2.13 104.96 L0 104.96 L0 113.47 L2.13 113.47 L2.13 107.94 L6.38 113.47 L8.5 113.47
						 L8.5 104.96 L6.38 104.96 Z" class="st1"/>
		</g>
		<g id="shape38-23" v:mID="38" v:groupContext="shape" v:layerMember="0" transform="translate(20.0081,-37.106)">
			<title>양극.38</title>
			<v:userDefs>
				<v:ud v:nameU="visVersion" v:val="VT0(15):26"/>
				<v:ud v:nameU="visDescription" v:val="VT4(양극 표시입니다.)"/>
				<v:ud v:nameU="SolSH" v:prompt="" v:val="VT4({2EE3C7D2-E26E-4B72-9E9C-5170DDBF261A})"/>
			</v:userDefs>
			<path d="M0 109.22 L8.5 109.22" class="st6"/>
			<path d="M4.25 104.96 L4.25 113.47" class="st6"/>
		</g>
		<g id="shape39-27" v:mID="39" v:groupContext="shape" v:layerMember="1" transform="translate(282.043,-34.3156)">
			<title>동적 연결선.39</title>
			<path d="M0 113.47 L61.11 113.47 L61.11 84.92" class="st4"/>
		</g>
		<g id="group43-30" transform="translate(88.0396,-15.8462)" v:mID="43" v:groupContext="group" v:layerMember="0">
			<v:custProps>
				<v:cp v:nameU="SubType" v:lbl="스위치 위치" v:type="1" v:format="가운데;위쪽;아래쪽" v:sortKey="" v:invis="false" v:ask="false"
						v:langID="1042" v:val="VT4(가운데)"/>
				<v:cp v:nameU="Label" v:lbl="Label" v:prompt="" v:type="0" v:format="@" v:sortKey="" v:invis="false" v:ask="false"
						v:langID="1042" v:cal="0" v:val="VT4()"/>
				<v:cp v:nameU="SubType" v:lbl="" v:prompt="" v:type="0" v:format="" v:sortKey="" v:invis="false" v:ask="false"
						v:langID="0" v:cal="0" v:val="VT4(위쪽)"/>
				<v:cp v:nameU="Label" v:lbl="" v:prompt="" v:type="0" v:format="" v:sortKey="" v:invis="false" v:ask="false"
						v:langID="0" v:cal="0" v:val="VT4(3로 스위치)"/>
			</v:custProps>
			<v:userDefs>
				<v:ud v:nameU="visDescription" v:val="VT4(1극 2단자 스위치를 나타냅니다. 마우스 오른쪽 단추를 클릭하여 위쪽, 아래쪽 및 가운데 위치를 지정할 수 있습니다.)"/>
				<v:ud v:nameU="visVersion" v:val="VT0(15):26"/>
				<v:ud v:nameU="Label" v:prompt="" v:val="VT4()"/>
				<v:ud v:nameU="SolSH" v:prompt="" v:val="VT4({2EE3C7D2-E26E-4B72-9E9C-5170DDBF261A})"/>
				<v:ud v:nameU="Label" v:prompt="" v:val="VT4(SPDT1)"/>
			</v:userDefs>
			<title>SPDT</title>
			<desc>3로 스위치</desc>
			<g id="shape44-31" v:mID="44" v:groupContext="shape" v:layerMember="0" transform="translate(8.8441,-4.51418)">
				<title>시트.44</title>
				<path d="M19.16 85.55 L0 99.51" class="st2"/>
			</g>
			<g id="shape45-34" v:mID="45" v:groupContext="shape" v:layerMember="0">
				<title>시트.45</title>
				<path d="M36.85 81.04 A4.42205 4.42205 0 1 1 28.01 81.04 A4.42205 4.42205 0 1 1 36.85 81.04" class="st7"/>
				<path d="M36.85 109.05 A4.42205 4.42205 0 1 1 28.01 109.05 A4.42205 4.42205 0 1 1 36.85 109.05" class="st7"/>
				<path d="M8.84 95 A4.42205 4.42205 0 1 1 0 95 A4.42205 4.42205 0 1 1 8.84 95" class="st7"/>
			</g>
			<g id="shape43-39" v:mID="43" v:groupContext="groupContent" v:layerMember="0">
				<v:textBlock v:margins="rect(1,1,1,1)" v:tabSpace="34.0157" v:verticalAlign="0"/>
				<v:textRect cx="18.4252" cy="122.313" width="54.55" height="14.0036"/>
				<text x="-6.09" y="125.31" class="st3" v:langID="1042"><v:paragraph v:horizAlign="1"/><v:tabList/>3로 스위치</text>			</g>
		</g>
		<g id="group46-41" transform="translate(286.465,-15.8462) scale(-1,1)" v:mID="46" v:groupContext="group" v:layerMember="0">
			<v:custProps>
				<v:cp v:nameU="SubType" v:lbl="스위치 위치" v:type="1" v:format="가운데;위쪽;아래쪽" v:sortKey="" v:invis="false" v:ask="false"
						v:langID="1042" v:val="VT4(가운데)"/>
				<v:cp v:nameU="Label" v:lbl="Label" v:prompt="" v:type="0" v:format="@" v:sortKey="" v:invis="false" v:ask="false"
						v:langID="1042" v:cal="0" v:val="VT4()"/>
				<v:cp v:nameU="SubType" v:lbl="" v:prompt="" v:type="0" v:format="" v:sortKey="" v:invis="false" v:ask="false"
						v:langID="0" v:cal="0" v:val="VT4(아래쪽)"/>
				<v:cp v:nameU="Label" v:lbl="" v:prompt="" v:type="0" v:format="" v:sortKey="" v:invis="false" v:ask="false"
						v:langID="0" v:cal="0" v:val="VT4(3로 스위치)"/>
			</v:custProps>
			<v:userDefs>
				<v:ud v:nameU="visDescription" v:val="VT4(1극 2단자 스위치를 나타냅니다. 마우스 오른쪽 단추를 클릭하여 위쪽, 아래쪽 및 가운데 위치를 지정할 수 있습니다.)"/>
				<v:ud v:nameU="visVersion" v:val="VT0(15):26"/>
				<v:ud v:nameU="Label" v:prompt="" v:val="VT4()"/>
				<v:ud v:nameU="SolSH" v:prompt="" v:val="VT4({2EE3C7D2-E26E-4B72-9E9C-5170DDBF261A})"/>
				<v:ud v:nameU="Label" v:prompt="" v:val="VT4(SPDT2)"/>
			</v:userDefs>
			<title>SPDT.46</title>
			<desc>3로 스위치</desc>
			<g id="shape47-42" v:mID="47" v:groupContext="shape" v:layerMember="0" transform="translate(8.8441,-4.51418)">
				<title>시트.47</title>
				<path d="M0 99.51 L19.16 113.47" class="st2"/>
			</g>
			<g id="shape48-45" v:mID="48" v:groupContext="shape" v:layerMember="0">
				<title>시트.48</title>
				<path d="M36.85 81.04 A4.42205 4.42205 0 1 1 28.01 81.04 A4.42205 4.42205 0 1 1 36.85 81.04" class="st7"/>
				<path d="M36.85 109.05 A4.42205 4.42205 0 1 1 28.01 109.05 A4.42205 4.42205 0 1 1 36.85 109.05" class="st7"/>
				<path d="M8.84 95 A4.42205 4.42205 0 1 1 0 95 A4.42205 4.42205 0 1 1 8.84 95" class="st7"/>
			</g>
			<g id="shape46-50" v:mID="46" v:groupContext="groupContent" v:layerMember="0">
				<v:textBlock v:margins="rect(1,1,1,1)" v:tabSpace="34.0157" v:verticalAlign="0"/>
				<v:textRect cx="18.4252" cy="122.313" width="54.55" height="14.0036"/>
				<text x="-42.94" y="125.31" transform="scale(-1,1)" class="st3" v:langID="1042"><v:paragraph v:horizAlign="1"/><v:tabList/>3로 스위치</text>			</g>
		</g>
		<g id="shape49-52" v:mID="49" v:groupContext="shape" v:layerMember="1" transform="translate(120.468,-41.1879)">
			<title>동적 연결선.49</title>
			<path d="M0 106.38 L133.57 106.38" class="st4"/>
		</g>
		<g id="shape50-55" v:mID="50" v:groupContext="shape" v:layerMember="1" transform="translate(120.468,-13.1816)">
			<title>동적 연결선.50</title>
			<path d="M0 106.38 L133.57 106.38" class="st4"/>
		</g>
	</g>
</svg>
